<?xml version="1.0" standalone="no"?>
<!DOCTYPE svg PUBLIC "-//W3C//DTD SVG 20010904//EN"
 "http://www.w3.org/TR/2001/REC-SVG-20010904/DTD/svg10.dtd">
<svg version="1.0" xmlns="http://www.w3.org/2000/svg"
 width="500.000000pt" height="500.000000pt" viewBox="0 0 500.000000 500.000000"
 preserveAspectRatio="xMidYMid meet">

<g transform="translate(0.000000,500.000000) scale(0.100000,-0.100000)"
fill="#000000" stroke="none">
<path d="M264 4350 c7 -208 20 -370 51 -630 25 -208 21 -194 68 -214 23 -10
51 -21 62 -26 61 -26 207 -69 400 -117 93 -23 116 -27 186 -36 14 -2 30 -6 35
-10 6 -3 77 -14 160 -24 119 -14 222 -18 514 -17 352 1 441 6 635 40 17 3 41
6 55 8 14 1 32 6 41 10 9 4 20 6 25 5 5 -1 25 1 44 5 19 4 42 8 50 10 8 2 22
6 30 9 8 4 44 13 80 21 83 19 302 85 315 95 5 5 28 14 50 21 22 7 82 30 134
51 51 22 99 39 105 39 6 0 28 11 47 25 20 13 39 21 43 18 3 -3 14 1 23 9 10 9
49 30 88 48 38 18 102 52 141 76 40 24 75 44 79 44 3 0 21 10 38 23 18 12 41
28 52 35 100 62 135 93 66 57 -16 -8 -46 -21 -67 -28 -22 -8 -77 -29 -124 -47
-180 -68 -366 -115 -610 -154 -386 -62 -696 -63 -1077 -1 -403 66 -715 173
-1088 375 -48 26 -201 125 -305 197 -48 33 -175 138 -240 198 -36 33 -76 69
-89 80 l-24 20 7 -215z"/>
<path d="M4801 4397 c-6 -8 -20 -45 -31 -83 -11 -38 -25 -77 -30 -86 -6 -10
-10 -22 -10 -28 0 -6 -8 -29 -18 -53 -11 -23 -29 -69 -42 -102 -32 -83 -119
-258 -180 -360 -243 -412 -602 -810 -1040 -1154 -63 -49 -128 -101 -145 -114
-16 -13 -66 -49 -110 -79 -44 -30 -110 -75 -147 -101 -37 -25 -98 -64 -135
-87 -82 -49 -101 -60 -133 -81 -23 -15 -44 -27 -160 -92 -19 -10 -39 -23 -45
-27 -20 -16 -479 -250 -489 -250 -3 0 -60 -26 -128 -59 -68 -32 -165 -75 -216
-95 -51 -20 -101 -40 -110 -45 -34 -18 -93 -42 -184 -75 -51 -19 -105 -40
-120 -47 l-28 -12 27 -36 c15 -20 30 -38 34 -41 3 -3 30 -34 59 -70 196 -239
558 -575 840 -780 132 -96 263 -180 280 -180 16 0 285 177 346 229 18 14 57
46 89 71 477 376 969 951 1254 1467 120 218 249 495 276 593 3 14 12 39 20 55
36 82 113 361 152 550 13 66 28 134 33 150 32 107 100 715 100 902 0 39 4 83
10 97 10 28 -2 43 -19 23z"/>
<path d="M4445 4025 c-11 -11 -42 -38 -69 -60 -28 -22 -64 -53 -83 -68 -18
-16 -46 -38 -62 -50 -89 -66 -156 -114 -176 -127 -13 -8 -54 -36 -92 -61 -37
-25 -86 -56 -108 -68 -22 -12 -62 -35 -90 -51 -27 -16 -111 -59 -185 -95 -74
-36 -143 -70 -153 -76 -35 -19 -210 -86 -327 -125 -41 -14 -84 -29 -95 -34
-81 -38 -457 -121 -692 -154 -15 -2 -62 -9 -103 -15 -213 -31 -709 -31 -945
-1 -294 38 -626 108 -802 170 -31 11 -59 18 -61 15 -3 -2 1 -24 7 -47 7 -24
19 -73 27 -110 26 -116 140 -475 174 -543 5 -11 19 -44 30 -73 76 -200 306
-612 340 -612 20 0 346 64 427 84 151 38 569 160 603 177 21 10 77 31 215 83
215 79 462 198 713 340 35 20 66 36 68 36 2 0 26 16 53 35 26 19 52 35 56 35
4 0 36 20 72 45 35 25 68 45 73 45 6 0 10 5 10 10 0 6 8 14 18 18 10 4 48 30
85 57 312 230 613 528 821 810 105 142 246 356 246 373 0 3 7 13 16 23 23 25
13 38 -11 14z"/>
</g>
</svg>
