<?xml version="1.0" encoding="UTF-8"?>
<svg version="1.1" xmlns="http://www.w3.org/2000/svg" width="1250" height="1250">
<path d="M0 0 C2.58257296 0.00423306 5.16516397 0.00185226 7.74772644 -0.00663757 C13.2997227 -0.01448341 18.84906426 0.03235453 24.40039253 0.11693001 C32.42607918 0.23912282 40.45048927 0.27792869 48.47700524 0.29674988 C61.50037099 0.3295364 74.52232318 0.42923802 87.54492188 0.57128906 C100.19100904 0.70908919 112.83671154 0.81520729 125.48339844 0.87890625 C126.65374093 0.88481753 126.65374093 0.88481753 127.84772671 0.89084823 C131.76211526 0.91042456 135.67650651 0.92937999 139.59089959 0.94802678 C172.03745871 1.10339328 204.48228497 1.36746748 236.92749023 1.70288086 C235.62090493 5.75963631 234.21156502 9.2082481 231.97827148 12.84350586 C231.38546387 13.81771484 230.79265625 14.79192383 230.18188477 15.7956543 C229.54105957 16.83753906 228.90023438 17.87942383 228.23999023 18.95288086 C226.86701649 21.212188 225.49553893 23.47231901 224.12670898 25.73413086 C223.77612427 26.31257751 223.42553955 26.89102417 223.06433105 27.48699951 C219.47344404 33.42561532 216.00506432 39.43294882 212.55249023 45.45288086 C207.26182083 54.66590719 201.93088165 63.85340627 196.55249023 73.01538086 C196.02300278 73.91750809 196.02300278 73.91750809 195.4828186 74.83786011 C193.68842621 77.89477058 191.89336408 80.95128701 190.09790039 84.00756836 C186.47512099 90.17480001 182.85750324 96.34505913 179.23999023 102.51538086 C178.70707367 103.42424545 178.70707367 103.42424545 178.16339111 104.35147095 C172.84108659 113.42892163 167.53367646 122.5149754 162.23535156 131.60644531 C157.28270186 140.10163978 152.30959474 148.58475093 147.33422852 157.06665039 C142.5211236 165.27242307 137.71751762 173.48360577 132.92749023 181.70288086 C126.04412962 193.51296601 119.13154991 205.30581391 112.21464539 217.0962677 C109.63645573 221.49185497 107.06248991 225.88989916 104.48999023 230.28881836 C96.38527697 244.14372419 88.22828169 257.96419134 79.92749023 271.70288086 C73.23376993 268.49010206 68.77969486 262.6004021 63.99389648 257.05444336 C61.4353501 254.14282724 58.8110532 251.29657742 56.17749023 248.45288086 C55.40598633 247.6196228 55.40598633 247.6196228 54.61889648 246.76953125 C53.57065545 245.63768517 52.52231534 244.50593084 51.47387695 243.37426758 C45.03809698 236.41826037 38.64426438 229.42480268 32.33764648 222.35131836 C30.4953479 220.32688005 28.63169191 218.34043763 26.73608398 216.36694336 C26.18815186 215.79065186 25.64021973 215.21436035 25.07568359 214.62060547 C23.99991581 213.49129629 22.91638689 212.36931539 21.82421875 211.25585938 C18.85332093 208.12145268 17.22833523 206.03312856 16.92749023 201.70288086 C17.95288086 199.16113281 17.95288086 199.16113281 19.58374023 196.44116211 C20.18629639 195.41837158 20.78885254 194.39558105 21.40966797 193.34179688 C22.07554932 192.24407959 22.74143066 191.1463623 23.42749023 190.01538086 C24.11789696 188.85344281 24.80675542 187.69058355 25.49414062 186.52685547 C26.92324308 184.10997187 28.35893937 181.69719081 29.79907227 179.28686523 C33.05687288 173.81969653 36.20232627 168.28790145 39.36499023 162.76538086 C45.10356791 152.79402949 50.95575351 142.89366005 56.84130859 133.00854492 C64.36847571 120.33296184 71.64131732 107.51873858 78.92749023 94.70288086 C61.76749023 94.37288086 44.60749023 94.04288086 26.92749023 93.70288086 C26.26749023 95.35288086 25.60749023 97.00288086 24.92749023 98.70288086 C23.8552528 100.67057539 22.74596594 102.61829545 21.61108398 104.55053711 C21.28315353 105.11045349 20.95522308 105.67036987 20.61735535 106.24725342 C19.53699069 108.08886691 18.45122375 109.92722375 17.36499023 111.76538086 C16.59783778 113.06897357 15.83074901 114.37260377 15.0637207 115.67626953 C9.28109417 125.48670919 3.38825653 135.22754245 -2.54223633 144.94921875 C-8.87811525 155.34223849 -15.10764399 165.79711152 -21.29150391 176.28125 C-24.80652142 182.23591769 -28.33910499 188.17037246 -32.01000977 194.03100586 C-32.58775146 194.96106445 -33.16549316 195.89112305 -33.76074219 196.84936523 C-34.80989907 198.53104402 -35.87174263 200.20490403 -36.94873047 201.86889648 C-37.39821045 202.59270508 -37.84769043 203.31651367 -38.31079102 204.06225586 C-38.70306885 204.67552734 -39.09534668 205.28879883 -39.49951172 205.9206543 C-40.28190199 207.74368613 -40.28190199 207.74368613 -39.38452148 209.70483398 C-38.01589713 211.78909556 -36.56688126 213.51204322 -34.84204102 215.31225586 C-34.20331055 215.98514648 -33.56458008 216.65803711 -32.90649414 217.35131836 C-32.2394043 218.04483398 -31.57231445 218.73834961 -30.88500977 219.45288086 C-26.39472727 224.15315666 -21.98960935 228.89321826 -17.73144531 233.80541992 C-15.23658178 236.65900041 -12.65672521 239.43041131 -10.07250977 242.20288086 C-6.30593719 246.26204785 -2.6002759 250.35703376 1.02124023 254.54663086 C3.61033982 257.47528448 6.26943705 260.33686263 8.92749023 263.20288086 C12.13908665 266.66575132 15.33851803 270.129364 18.42749023 273.70288086 C21.98432062 277.81492379 25.68332707 281.79057706 29.37792969 285.77832031 C33.94359642 290.70952596 38.44480162 295.69613692 42.92749023 300.70288086 C44.57262355 302.53684237 46.21844761 304.37018453 47.86499023 306.20288086 C48.59588867 307.01756836 49.32678711 307.83225586 50.07983398 308.67163086 C51.32977214 310.04577005 52.61398273 311.38937336 53.92749023 312.70288086 C53.61007151 316.99045244 52.45217883 320.03621274 50.25952148 323.69506836 C49.42517578 325.1046582 49.42517578 325.1046582 48.57397461 326.54272461 C47.96875977 327.54432617 47.36354492 328.54592773 46.73999023 329.57788086 C45.45458719 331.74179678 44.16943792 333.90586346 42.88452148 336.07006836 C42.22532715 337.17318359 41.56613281 338.27629883 40.88696289 339.4128418 C37.86408728 344.48838027 34.89701935 349.59601517 31.92749023 354.70288086 C30.76112765 356.70305821 29.59446001 358.7030577 28.42749023 360.70288086 C27.84999023 361.69288086 27.27249023 362.68288086 26.67749023 363.70288086 C-21.73917643 446.70288086 -70.1558431 529.70288086 -118.57250977 612.70288086 C-119.15073486 613.69416992 -119.72895996 614.68545898 -120.32470703 615.70678711 C-121.48388736 617.69386086 -122.64322812 619.68084103 -123.80273438 621.66772461 C-126.83530793 626.86471485 -129.8645432 632.06361333 -132.88891602 637.26538086 C-133.51604492 638.34303711 -134.14317383 639.42069336 -134.78930664 640.53100586 C-135.98305493 642.5824844 -137.17582961 644.63452992 -138.36743164 646.68725586 C-141.51131717 652.08742934 -144.72938093 657.42360105 -148.07250977 662.70288086 C-151.90641556 661.42491226 -152.17887791 660.22837418 -154.07641602 656.73413086 C-154.64674561 655.69716064 -155.2170752 654.66019043 -155.8046875 653.59179688 C-156.40869385 652.47345459 -157.0127002 651.3551123 -157.63500977 650.20288086 C-158.90705333 647.88831215 -160.18049359 645.57451049 -161.45532227 643.26147461 C-162.07697266 642.1295166 -162.69862305 640.99755859 -163.33911133 639.83129883 C-165.49755137 635.93577056 -167.73113872 632.09133973 -170.01000977 628.26538086 C-174.17165819 621.25642576 -178.25581011 614.20484566 -182.32250977 607.14038086 C-187.213963 598.64631787 -192.12638278 590.16522516 -197.07250977 581.70288086 C-203.81970469 570.1556936 -210.50590375 558.57385918 -217.18139648 546.98510742 C-220.30931123 541.55628148 -223.44104707 536.12966079 -226.57250977 530.70288086 C-230.33614896 524.18054811 -234.09895598 517.65774324 -237.85766602 511.13256836 C-243.33240901 501.63094829 -248.81148202 492.13223889 -254.34350586 482.66381836 C-255.48785706 480.70410481 -256.63014173 478.74318293 -257.77026367 476.78100586 C-260.56161518 471.97991311 -263.37165685 467.19224854 -266.23617554 462.43450928 C-267.66002826 460.06419131 -269.0706295 457.68613589 -270.47949219 455.30688477 C-271.48764825 453.61539903 -272.51329884 451.93437941 -273.53930664 450.25366211 C-274.14709961 449.22370117 -274.75489258 448.19374023 -275.38110352 447.13256836 C-275.92565186 446.22748535 -276.4702002 445.32240234 -277.03125 444.38989258 C-278.3530172 440.97902041 -278.06102698 439.20132512 -277.07250977 435.70288086 C-275.82006836 433.04760742 -275.82006836 433.04760742 -274.22094727 430.34350586 C-273.62467529 429.32369629 -273.02840332 428.30388672 -272.4140625 427.25317383 C-271.7651001 426.16407715 -271.1161377 425.07498047 -270.44750977 423.95288086 C-269.7682276 422.79736807 -269.08994103 421.64126949 -268.41259766 420.48461914 C-267.00469382 418.08213195 -265.59254285 415.68221844 -264.17749023 413.28393555 C-260.91193938 407.74015873 -257.71587174 402.15629998 -254.51000977 396.57788086 C-249.15069223 387.27948582 -243.75392495 378.00350521 -238.33959961 368.73706055 C-231.53663354 357.08628901 -224.8060879 345.39384342 -218.07250977 333.70288086 C-204.20423077 309.62451908 -190.23964695 285.60680865 -176.07250977 261.70288086 C-172.95414643 263.07641014 -170.95385549 264.62127059 -168.64672852 267.11694336 C-167.69830078 268.13594727 -167.69830078 268.13594727 -166.73071289 269.17553711 C-165.75521484 270.24094727 -165.75521484 270.24094727 -164.76000977 271.32788086 C-164.1212793 272.01495117 -163.48254883 272.70202148 -162.82446289 273.40991211 C-159.04501831 277.49186542 -155.35589254 281.64446074 -151.70458984 285.84106445 C-149.37078782 288.50337922 -146.97511821 291.10241054 -144.57250977 293.70288086 C-140.97141519 297.61180306 -137.42831485 301.5615673 -133.94750977 305.57788086 C-131.06052028 308.84980227 -128.09523719 312.04969323 -125.13916016 315.2590332 C-121.83784775 318.84973335 -118.59875864 322.48664134 -115.41235352 326.17944336 C-114.34363073 327.39460921 -113.21679916 328.55859146 -112.07250977 329.70288086 C-112.36104036 334.49351302 -113.99424934 337.78424004 -116.43188477 341.85913086 C-116.77225769 342.43417358 -117.11263062 343.00921631 -117.46331787 343.60168457 C-118.57434182 345.47409241 -119.6983226 347.33835211 -120.82250977 349.20288086 C-121.60402106 350.51483783 -122.38461033 351.82734444 -123.16430664 353.14038086 C-124.73113926 355.77608315 -126.30279107 358.40880292 -127.87915039 361.03881836 C-130.7999202 365.91328245 -133.68575149 370.80822491 -136.57250977 375.70288086 C-137.61805644 377.46982347 -138.66362995 379.2367502 -139.70922852 381.00366211 C-142.17907816 385.18335063 -144.63842459 389.36911645 -147.09204102 393.55834961 C-147.4413266 394.15467697 -147.79061218 394.75100433 -148.15048218 395.36540222 C-149.94455885 398.42901945 -151.73753566 401.49327626 -153.52954102 404.55810547 C-157.2172393 410.86061157 -160.9274199 417.14848967 -164.67797852 423.41381836 C-165.42305411 424.66094628 -166.16809056 425.90809759 -166.91308594 427.15527344 C-168.3230743 429.51526433 -169.73956381 431.87118365 -171.15966797 434.22509766 C-172.10652466 435.80931519 -172.10652466 435.80931519 -173.07250977 437.42553711 C-173.62938477 438.35116455 -174.18625977 439.27679199 -174.76000977 440.23046875 C-176.47358056 443.317789 -176.47358056 443.317789 -177.07250977 446.70288086 C-175.75600127 449.75208262 -175.75600127 449.75208262 -173.73266602 452.98022461 C-173.19300453 453.89101524 -173.19300453 453.89101524 -172.6424408 454.82020569 C-171.48479366 456.76740047 -170.31021389 458.70374291 -169.13500977 460.64038086 C-168.3780337 461.9085952 -167.62216305 463.17747004 -166.86743164 464.44702148 C-163.86371006 469.48388676 -160.83091657 474.50112271 -157.72045898 479.47290039 C-157.3478746 480.07034561 -156.97529022 480.66779083 -156.59141541 481.28334045 C-155.56650115 482.92268163 -154.53539455 484.55814666 -153.50390625 486.19335938 C-152.07250977 488.70288086 -152.07250977 488.70288086 -152.07250977 490.70288086 C-151.41250977 490.70288086 -150.75250977 490.70288086 -150.07250977 490.70288086 C-149.65630371 489.61003784 -149.65630371 489.61003784 -149.23168945 488.49511719 C-148.14435311 485.87593738 -146.92353962 483.49165343 -145.52563477 481.02709961 C-144.76391968 479.68047241 -144.76391968 479.68047241 -143.98681641 478.30664062 C-143.43759521 477.3442749 -142.88837402 476.38190918 -142.32250977 475.39038086 C-141.74686279 474.37709717 -141.17121582 473.36381348 -140.578125 472.31982422 C-134.74112703 462.07135271 -128.79661315 451.88607399 -122.83422852 441.71020508 C-119.92977286 436.75218335 -117.03160202 431.79049981 -114.13500977 426.82788086 C-113.56016846 425.84311768 -112.98532715 424.85835449 -112.39306641 423.84375 C-108.09684354 416.47649016 -103.82991092 409.09263058 -99.57250977 401.70288086 C-92.45153971 389.34271451 -85.27049095 377.01831719 -78.07250977 364.70288086 C-76.83674128 362.58835094 -75.6010653 360.47376695 -74.36547852 358.35913086 C-73.45004272 356.79267822 -73.45004272 356.79267822 -72.51611328 355.19458008 C-70.75195448 352.17118751 -68.99415668 349.14416089 -67.23657227 346.11694336 C-65.30687423 342.79814056 -63.35051593 339.50039728 -61.34594727 336.22631836 C-60.95455566 335.57614746 -60.56316406 334.92597656 -60.15991211 334.25610352 C-59.16224836 332.601693 -58.14936158 330.95648744 -57.13500977 329.31225586 C-55.77090794 326.81576132 -55.77090794 326.81576132 -56.83154297 324.73803711 C-58.03719591 322.76079475 -59.27230712 321.2057103 -60.86547852 319.53100586 C-61.40962402 318.95334473 -61.95376953 318.37568359 -62.5144043 317.78051758 C-63.0904541 317.17739746 -63.66650391 316.57427734 -64.26000977 315.95288086 C-65.44965038 314.69064981 -66.63846056 313.42763554 -67.82641602 312.16381836 C-68.39376465 311.56150391 -68.96111328 310.95918945 -69.5456543 310.33862305 C-71.85238455 307.8673898 -74.06007806 305.31679423 -76.26782227 302.75756836 C-78.66032787 300.03363341 -81.11658657 297.36946458 -83.57250977 294.70288086 C-87.19346284 290.77008119 -90.76210024 286.80073933 -94.26391602 282.76147461 C-96.50262227 280.21331436 -98.78661188 277.70877493 -101.07250977 275.20288086 C-103.91775205 272.08381075 -106.74450557 268.95532695 -109.51000977 265.76538086 C-112.47134487 262.35599505 -115.51403463 259.02493776 -118.57250977 255.70288086 C-122.21665305 251.744259 -125.81164694 247.75111326 -129.33813477 243.68725586 C-131.35349739 241.38139051 -133.39804852 239.10348955 -135.44750977 236.82788086 C-136.19774414 235.9912793 -136.94797852 235.15467773 -137.72094727 234.29272461 C-139.33254075 232.51783012 -140.96390469 230.76074499 -142.61157227 229.01928711 C-143.42368164 228.15174805 -144.23579102 227.28420898 -145.07250977 226.39038086 C-145.81500977 225.61049805 -146.55750977 224.83061523 -147.32250977 224.02709961 C-149.32273395 221.37055186 -149.81874454 220.00390643 -150.07250977 216.70288086 C-148.93945312 213.94580078 -148.93945312 213.94580078 -147.16235352 210.93334961 C-146.50928223 209.80960938 -145.85621094 208.68586914 -145.18334961 207.52807617 C-144.45915776 206.31535889 -143.73470454 205.10279767 -143.01000977 203.89038086 C-142.27119491 202.6304278 -141.53374347 201.36967434 -140.79760742 200.1081543 C-139.29294422 197.53467917 -137.78037564 194.96612971 -136.26049805 192.40161133 C-134.28383484 189.06513512 -132.3284063 185.7167549 -130.38110352 182.36303711 C-127.52597202 177.44604508 -124.6586487 172.53634884 -121.78588867 167.62963867 C-118.89869799 162.69780026 -116.01603559 157.7633227 -113.13500977 152.82788086 C-112.55992676 151.84271484 -111.98484375 150.85754883 -111.39233398 149.8425293 C-106.4591188 141.38284143 -101.56625072 132.90016024 -96.67822266 124.41430664 C-91.92836444 116.17318895 -87.14155935 107.95421176 -82.34204102 99.74194336 C-78.06028831 92.41004321 -73.81046286 85.06017279 -69.57250977 77.70288086 C-63.03110818 66.34847278 -56.44044164 55.0235732 -49.82836914 43.71020508 C-48.01626847 40.60655434 -46.20797467 37.50071234 -44.40063477 34.39428711 C-43.79098877 33.34708496 -43.18134277 32.29988281 -42.55322266 31.22094727 C-41.41105179 29.25880812 -40.26954113 27.2962844 -39.12890625 25.33325195 C-38.075333 23.52442849 -36.997487 21.7294794 -35.89345455 19.95100498 C-34.5322706 17.52298275 -33.5830334 15.47928567 -32.64837742 12.90814877 C-26.5054474 -2.23941929 -14.48789804 -0.33117441 0 0 Z " fill="#FF0000" transform="translate(794.072509765625,264.297119140625)"/>
<path d="M0 0 C149.49 0 298.98 0 453 0 C451.57181199 4.28456404 450.48701477 7.1910008 448.26953125 10.921875 C447.72176025 11.85112793 447.17398926 12.78038086 446.60961914 13.73779297 C446.01656982 14.73182129 445.42352051 15.72584961 444.8125 16.75 C443.53580222 18.91367549 442.25978329 21.07775166 440.984375 23.2421875 C440.32501953 24.35819336 439.66566406 25.47419922 438.98632812 26.62402344 C435.81074612 32.02126384 432.68628131 37.44766651 429.5625 42.875 C428.30469949 45.05729858 427.04688692 47.2395902 425.7890625 49.421875 C424.52596731 51.6145405 423.26294656 53.80724889 422 56 C414.12337411 69.67554314 406.22879908 83.33960958 398.26708984 96.96582031 C392.10080946 107.52620282 385.9950405 118.12126766 379.89111328 128.71777344 C376.76319852 134.14659942 373.63141552 139.57319281 370.5 145 C369.24998121 147.16665583 367.99998122 149.3333225 366.75 151.5 C364.25 155.83333333 361.75 160.16666667 359.25 164.5 C358.6307666 165.57338623 358.0115332 166.64677246 357.37353516 167.75268555 C356.12858718 169.91049803 354.8834711 172.06821353 353.63818359 174.22583008 C350.43447349 179.77716592 347.2340637 185.33036541 344.0390625 190.88671875 C343.38357422 192.02560547 342.72808594 193.16449219 342.05273438 194.33789062 C340.8211516 196.47787488 339.59058114 198.61844226 338.36132812 200.75976562 C337.23684872 202.71267505 336.09238529 204.65425835 334.92518616 206.5819397 C333.54452435 209.03322748 332.44436465 211.25919029 331.38414001 213.83126831 C326.97377512 223.72782264 326.97377512 223.72782264 322.00785828 225.85223579 C316.03916404 227.20818182 309.94796342 226.86832669 303.87109375 226.68359375 C301.91098274 226.678048 299.95084278 226.67913176 297.99073792 226.6865387 C292.85447163 226.6882711 287.72356089 226.60050733 282.58856201 226.49353027 C277.33989852 226.40020172 272.09116514 226.39226008 266.84179688 226.37695312 C256.55935698 226.33447338 246.28055247 226.19736174 236 226 C238.00409495 229.62183969 240.00995875 233.24269281 242.01730347 236.86273193 C242.69659571 238.08830759 243.37544575 239.31412847 244.05380249 240.54022217 C248.64448332 248.83671532 253.32682036 257.07104022 258.125 265.25 C259.26453287 267.20039818 260.40388137 269.1509041 261.54296875 271.1015625 C263.31564003 274.13302842 265.09502438 277.15988853 266.88916016 280.17871094 C268.75357832 283.31893403 270.59693572 286.47075245 272.4375 289.625 C273.01193848 290.57922852 273.58637695 291.53345703 274.17822266 292.51660156 C274.69562012 293.41088867 275.21301758 294.30517578 275.74609375 295.2265625 C276.20685303 296.00596191 276.6676123 296.78536133 277.14233398 297.58837891 C278.29308465 300.82410765 277.89809473 302.70199656 277 306 C275.63989258 308.85473633 275.63989258 308.85473633 273.89453125 311.83203125 C273.24790527 312.94739258 272.6012793 314.06275391 271.93505859 315.21191406 C271.22757253 316.4121291 270.52005212 317.6123239 269.8125 318.8125 C268.71234277 320.70221093 267.61550746 322.59382553 266.51873779 324.48550415 C265.77180169 325.77321448 265.02378736 327.06029995 264.27471924 328.34677124 C260.73064415 334.43827717 257.29667812 340.58901853 253.875 346.75 C247.6188265 357.9746269 241.17321467 369.08287213 234.66455078 380.16259766 C231.76649789 385.10263443 228.88372912 390.05159229 226 395 C222.08479557 393.69493186 221.78473877 392.31813771 219.84765625 388.734375 C218.93995483 387.07450562 218.93995483 387.07450562 218.01391602 385.38110352 C217.69609161 384.7896756 217.37826721 384.19824768 217.05081177 383.58889771 C215.713234 381.10013983 214.35526296 378.62271553 212.99864197 376.14430237 C212.31026013 374.88597973 211.62297891 373.62705438 210.93678284 372.36753845 C208.0444446 367.06063505 205.07493134 361.8019192 202.0625 356.5625 C201.35287109 355.3252417 201.35287109 355.3252417 200.62890625 354.06298828 C199.63202544 352.32538802 198.63461415 350.58809201 197.63671875 348.85107422 C194.43835474 343.27969968 191.25055133 337.70227967 188.0625 332.125 C187.72066681 331.52712677 187.37883362 330.92925354 187.02664185 330.31326294 C182.495913 322.38779637 177.98538592 314.45123872 173.5 306.5 C168.75511427 298.08928125 163.98082026 289.6956897 159.1875 281.3125 C158.85284729 280.7271347 158.51819458 280.14176941 158.17340088 279.53866577 C154.76332996 273.57436841 151.35069331 267.61154488 147.93510437 261.65040588 C146.24760969 258.70489112 144.56107525 255.75882747 142.875 252.8125 C142.54271393 252.23194855 142.21042786 251.65139709 141.86807251 251.05325317 C137.15384494 242.81306722 132.49652332 234.54252977 127.875 226.25 C123.36224829 218.15278675 118.75861303 210.11720806 114.0625 202.125 C108.42038573 192.52281393 102.98597531 182.81779673 97.60571289 173.06689453 C92.95948416 164.6689368 88.16094215 156.37165688 83.29370117 148.1003418 C76.82460866 137.06807285 70.65724737 125.87121198 64.49536133 114.6652832 C63.47438285 112.84552451 62.40925404 111.05001778 61.30737305 109.27807617 C60 107 60 107 60 105 C95.31 105 130.62 105 167 105 C185 136.84615385 185 136.84615385 185 139 C213.71 139 242.42 139 272 139 C272.66 137.02 273.32 135.04 274 133 C274.97458712 130.99898244 275.99606938 129.02036082 277.0546875 127.0625 C277.96903564 125.36359619 277.96903564 125.36359619 278.90185547 123.63037109 C279.55944434 122.42017894 280.21716181 121.21005665 280.875 120 C281.54741422 118.75492329 282.21944822 117.50964117 282.89111328 116.26416016 C284.92031624 112.50557457 286.95891461 108.75214328 289 105 C289.92232422 103.30375488 289.92232422 103.30375488 290.86328125 101.57324219 C293.90803394 95.97825596 296.95977437 90.3871689 300.02294922 84.80224609 C300.70377451 83.54641094 301.36115025 82.2776995 302 81 C300.03259385 81.02545395 300.03259385 81.02545395 298.02544212 81.05142212 C266.84852069 81.4493935 235.67323209 81.72258403 204.49407115 81.84338564 C200.65164238 81.85838124 196.80921864 81.87442361 192.96679688 81.89111328 C192.20188122 81.89441812 191.43696557 81.89772295 190.64887066 81.90112793 C178.28346762 81.95704593 165.92041692 82.09763605 153.55614929 82.2698617 C140.85682282 82.44485688 128.15925164 82.52806859 115.45870841 82.52715683 C107.62790365 82.5294561 99.80440275 82.60220239 91.97530223 82.76689976 C85.95785008 82.88579021 79.94732448 82.87656694 73.92867851 82.82098579 C71.47026229 82.81798157 69.01138812 82.85572331 66.55435753 82.93830681 C51.40781618 83.41929928 51.40781618 83.41929928 45 80 C39.06406724 74.03045321 35.59560532 66.45074643 32.26060128 58.82123375 C30.62614319 55.16330605 28.68427602 51.80915113 26.625 48.375 C25.41562535 46.25059246 24.20726659 44.12560623 23 42 C19.01163536 34.98561339 15.0067826 27.98310077 10.91015625 21.03125 C9.93852539 19.37996094 9.93852539 19.37996094 8.94726562 17.6953125 C7.71992988 15.61456507 6.48836899 13.53630222 5.25195312 11.4609375 C4.70603516 10.53539062 4.16011719 9.60984375 3.59765625 8.65625 C3.11820557 7.84994141 2.63875488 7.04363281 2.14477539 6.21289062 C1 4 1 4 0 0 Z " fill="#FF0000" transform="translate(263,266)"/>
<path d="M0 0 C0.66 0 1.32 0 2 0 C10.49813485 38.15120112 11.75833513 79.23652507 5.36425781 117.79931641 C4.85740059 120.86152214 4.39953679 123.93075561 3.9375 127 C3.7828125 127.98484375 3.628125 128.9696875 3.46875 129.984375 C3.12413461 132.20140069 2.79271845 134.42048827 2.46875 136.640625 C2.2934375 137.83171875 2.118125 139.0228125 1.9375 140.25 C1.78152344 141.32765625 1.62554688 142.4053125 1.46484375 143.515625 C1 146 1 146 0 147 C-0.37865296 148.97462823 -0.72581329 150.95528488 -1.0625 152.9375 C-3.2870969 164.90198191 -7.2894914 176.43322393 -11 188 C-11.4326416 189.36366699 -11.4326416 189.36366699 -11.87402344 190.75488281 C-14.97257242 200.5012278 -18.37677226 209.8381335 -23.00390625 218.984375 C-24.12662442 221.25622824 -25.15666068 223.5600093 -26.1875 225.875 C-30.81844324 236.0739395 -35.82778188 245.98145921 -41.6171875 255.57421875 C-43.11384783 258.01638494 -43.11384783 258.01638494 -44 261 C-44.66 261 -45.32 261 -46 261 C-46.34804688 262.24330078 -46.34804688 262.24330078 -46.703125 263.51171875 C-48.24749276 267.66569588 -50.35755519 271.10191352 -52.75 274.8125 C-53.19666016 275.51375 -53.64332031 276.215 -54.10351562 276.9375 C-54.99094513 278.32707848 -55.88148517 279.71467624 -56.77539062 281.10009766 C-57.83354113 282.74174981 -58.87891898 284.39162172 -59.921875 286.04296875 C-60.44265625 286.85378906 -60.9634375 287.66460938 -61.5 288.5 C-61.9434375 289.1909375 -62.386875 289.881875 -62.84375 290.59375 C-63.2253125 291.0578125 -63.606875 291.521875 -64 292 C-64.66 292 -65.32 292 -66 292 C-66.66 293.98 -67.32 295.96 -68 298 C-68.66 298 -69.32 298 -70 298 C-70.2475 298.54140625 -70.495 299.0828125 -70.75 299.640625 C-72.27988604 302.5282849 -74.09150997 305.09776018 -76 307.75 C-76.70125 308.73484375 -77.4025 309.7196875 -78.125 310.734375 C-78.74375 311.48203125 -79.3625 312.2296875 -80 313 C-80.66 313 -81.32 313 -82 313 C-82.28875 313.598125 -82.5775 314.19625 -82.875 314.8125 C-84 317 -84 317 -86 320 C-86.66 320 -87.32 320 -88 320 C-88.061875 320.556875 -88.12375 321.11375 -88.1875 321.6875 C-89.33901755 324.96489609 -91.5034586 326.6195768 -94 329 C-94.99 330.2375 -94.99 330.2375 -96 331.5 C-98.17231104 334.2153888 -100.44223777 336.64416636 -103 339 C-103.66 339 -104.32 339 -105 339 C-105 339.66 -105 340.32 -105 341 C-106.66215268 342.33895632 -108.32963607 343.67130142 -110 345 C-110.598125 345.763125 -111.19625 346.52625 -111.8125 347.3125 C-114.82268033 351.01072155 -118.36649289 353.92914418 -122 357 C-123.27162938 358.08239882 -124.54251634 359.16567073 -125.8125 360.25 C-126.35519531 360.70890625 -126.89789062 361.1678125 -127.45703125 361.640625 C-129.03938641 363.03469992 -130.5110903 364.50719263 -132 366 C-137.53521127 371 -137.53521127 371 -140 371 C-140 371.66 -140 372.32 -140 373 C-140.8971875 373.4021875 -140.8971875 373.4021875 -141.8125 373.8125 C-143.98766902 374.85394121 -143.98766902 374.85394121 -145.32421875 376.35546875 C-148.10739294 379.08674226 -151.40658009 381.09732221 -154.625 383.28125 C-156.94947169 384.86417477 -156.94947169 384.86417477 -158.5234375 386.54296875 C-160.37773762 388.37274109 -162.36914696 389.51269896 -164.625 390.8125 C-167.9231272 392.71772882 -171.10962109 394.72984505 -174.265625 396.859375 C-178.78969033 399.89341965 -183.41100582 402.70956244 -188.125 405.4375 C-188.94468262 405.91195557 -189.76436523 406.38641113 -190.60888672 406.87524414 C-197.89206467 411.03554577 -205.3235663 414.62421892 -213 418 C-213.88429688 418.39832031 -214.76859375 418.79664063 -215.6796875 419.20703125 C-217.78087325 420.15150363 -219.8883982 421.07911889 -222 422 C-222.96873047 422.43119141 -222.96873047 422.43119141 -223.95703125 422.87109375 C-226.9339811 424.18095169 -229.80311832 425.36062366 -233 426 C-233 425.01 -233 424.02 -233 423 C-230.39761208 421.51762714 -227.79321772 420.03899869 -225.1875 418.5625 C-224.44951172 418.14162109 -223.71152344 417.72074219 -222.95117188 417.28710938 C-222.23896484 416.88427734 -221.52675781 416.48144531 -220.79296875 416.06640625 C-219.81106567 415.5086853 -219.81106567 415.5086853 -218.80932617 414.93969727 C-217 414 -217 414 -214 413 C-213.67 412.34 -213.34 411.68 -213 411 C-211.55642203 409.90954775 -210.07076266 408.87407318 -208.5625 407.875 C-207.75941406 407.33617187 -206.95632813 406.79734375 -206.12890625 406.2421875 C-204 405 -204 405 -202 405 C-202 404.34 -202 403.68 -202 403 C-197.61538462 400 -197.61538462 400 -195 400 C-195 399.34 -195 398.68 -195 398 C-193.34151823 396.98648336 -191.67334039 395.98879205 -190 395 C-189.278125 394.278125 -188.55625 393.55625 -187.8125 392.8125 C-187.214375 392.214375 -186.61625 391.61625 -186 391 C-185.34 391 -184.68 391 -184 391 C-184 390.34 -184 389.68 -184 389 C-183.401875 388.731875 -182.80375 388.46375 -182.1875 388.1875 C-179.95672092 387.1106021 -179.95672092 387.1106021 -178.375 385.375 C-177.92125 384.92125 -177.4675 384.4675 -177 384 C-176.34 384 -175.68 384 -175 384 C-174.67 383.01 -174.34 382.02 -174 381 C-172.328125 379.3515625 -172.328125 379.3515625 -170.25 377.625 C-167.78206614 375.54116318 -165.4129414 373.46613713 -163.1875 371.125 C-161 369 -161 369 -158 368 C-158 367.34 -158 366.68 -158 366 C-156.34997172 364.64613064 -154.6825613 363.31321858 -153 362 C-152.67 361.34 -152.34 360.68 -152 360 C-151.34 360 -150.68 360 -150 360 C-149.67 359.01 -149.34 358.02 -149 357 C-148.34 357 -147.68 357 -147 357 C-146.72800781 356.41089844 -146.45601562 355.82179688 -146.17578125 355.21484375 C-145.0244625 353.04608053 -143.80016325 351.40493585 -142.1875 349.5625 C-141.38699219 348.64791016 -141.38699219 348.64791016 -140.5703125 347.71484375 C-139.28126025 346.30714738 -137.92959163 344.957038 -136.5625 343.625 C-133.56881453 340.55829782 -131.08774399 337.24121301 -128.55078125 333.79296875 C-128.03902344 333.20128906 -127.52726563 332.60960937 -127 332 C-126.34 332 -125.68 332 -125 332 C-124.67 330.68 -124.34 329.36 -124 328 C-123.34 328 -122.68 328 -122 328 C-121.7525 327.278125 -121.505 326.55625 -121.25 325.8125 C-119.88483061 322.74086887 -118.1247383 320.5895248 -116 318 C-115.29114106 316.68861096 -114.60543548 315.36222983 -114 314 C-113.34 314 -112.68 314 -112 314 C-111.61328125 313.18015625 -111.61328125 313.18015625 -111.21875 312.34375 C-109.28392627 308.62293513 -106.9361073 305.17264007 -104.65625 301.65625 C-103.29574622 299.47430997 -102.09547045 297.32239735 -101 295 C-100.34 295 -99.68 295 -99 295 C-98.731875 294.11699219 -98.46375 293.23398437 -98.1875 292.32421875 C-97.05960055 289.16684232 -95.74983197 286.66018327 -94 283.8125 C-85.81286048 270.03081514 -78.80481376 255.94079904 -73 241 C-72.63777344 240.10667969 -72.27554688 239.21335937 -71.90234375 238.29296875 C-71.0430082 236.10928923 -70.28482547 233.91977136 -69.5625 231.6875 C-68.56769757 228.6576449 -67.51418031 225.66603974 -66.375 222.6875 C-65.40259766 220.07969373 -64.62852884 217.68607137 -64 215 C-63.34 215 -62.68 215 -62 215 C-61.8453125 213.0509375 -61.8453125 213.0509375 -61.6875 211.0625 C-61.2283213 206.87085441 -60.18384579 203.2276444 -58.76171875 199.2734375 C-57.73522366 196.20974447 -57.07578113 193.10777077 -56.4296875 189.9453125 C-56 188 -56 188 -55 185 C-54.68094803 183.58864175 -54.38225588 182.17261317 -54.09765625 180.75390625 C-53.93064209 179.9232666 -53.76362793 179.09262695 -53.59155273 178.23681641 C-53.32967163 176.91302979 -53.32967163 176.91302979 -53.0625 175.5625 C-52.88211182 174.65161621 -52.70172363 173.74073242 -52.51586914 172.80224609 C-51.22156742 166.21765453 -49.98692738 159.63862872 -49 153 C-48.82404297 151.82896729 -48.82404297 151.82896729 -48.64453125 150.63427734 C-47.00961061 139.63700794 -45.67440659 128.74112934 -45.2109375 117.62890625 C-45 114 -45 114 -44.49291992 110.76708984 C-43.98066007 106.85219657 -43.87270214 103.03571087 -43.90234375 99.09765625 C-43.9037587 98.3750914 -43.90517365 97.65252655 -43.90663147 96.9080658 C-43.91217775 94.62616635 -43.9247198 92.34436921 -43.9375 90.0625 C-43.94252196 88.50455872 -43.94708364 86.94661588 -43.95117188 85.38867188 C-43.9621295 81.59240919 -43.97935628 77.79622187 -44 74 C-43.34 74 -42.68 74 -42 74 C-41.79761719 73.23171875 -41.59523438 72.4634375 -41.38671875 71.671875 C-39.43745221 66.51043683 -36.63401925 61.97899821 -33.8125 57.25 C-32.54226885 55.09806923 -31.27276288 52.94571027 -30.00390625 50.79296875 C-29.34535645 49.67841309 -28.68680664 48.56385742 -28.00830078 47.41552734 C-24.71790031 41.81952654 -21.48566485 36.19026486 -18.25 30.5625 C-13.8976477 23.00752635 -9.53681723 15.457939 -5.125 7.9375 C-4.50866699 6.88381226 -4.50866699 6.88381226 -3.87988281 5.80883789 C-1.12063054 1.12063054 -1.12063054 1.12063054 0 0 Z " fill="#FF8400" transform="translate(998,429)"/>
<path d="M0 0 C0.66 0.33 1.32 0.66 2 1 C1.97679687 2.18851562 1.95359375 3.37703125 1.9296875 4.6015625 C1.75823557 17.5211249 2.60213767 30.16213221 4 43 C4.07476562 43.73202637 4.14953125 44.46405273 4.2265625 45.21826172 C5.28564512 55.55657516 7.2537614 65.57203541 9.50561523 75.70483398 C10.00774055 78.03593528 10.46101992 80.37300359 10.91015625 82.71484375 C12.17703333 89.09990423 13.80620578 95.38744866 15.4375 101.6875 C15.73720703 102.87150391 16.03691406 104.05550781 16.34570312 105.27539062 C17.85415445 111.11614032 19.51300343 116.51397815 22 122 C23.03974176 124.93882298 23.98458245 127.90706539 24.9375 130.875 C26.97354029 137.09693289 29.16035602 143.09401777 32 149 C32.67107625 150.49803241 33.3376238 151.99810047 34 153.5 C34.33 154.23992187 34.66 154.97984375 35 155.7421875 C35.67438932 157.26483213 36.34089746 158.79098864 37 160.3203125 C38.75920184 164.374723 40.63437557 168.21775337 42.890625 172.02734375 C44.24149926 174.4294265 45.42366193 176.89470931 46.625 179.375 C49.67813981 185.57570662 53.16359681 191.48125531 56.74853516 197.38818359 C57.16925293 198.08766113 57.5899707 198.78713867 58.0234375 199.5078125 C58.40419434 200.13316895 58.78495117 200.75852539 59.17724609 201.40283203 C60 203 60 203 60 205 C60.66 205 61.32 205 62 205 C63.19820784 206.85043427 64.30894982 208.75790262 65.375 210.6875 C67.64698974 214.78608941 70.06575172 218.35441881 73 222 C73.165 222.721875 73.33 223.44375 73.5 224.1875 C73.665 224.785625 73.83 225.38375 74 226 C74.66 226.33 75.32 226.66 76 227 C78 228 78 228 78.75 230.125 C78.8325 230.74375 78.915 231.3625 79 232 C79.66 232 80.32 232 81 232 C81.94806826 233.3882428 82.88814838 234.7828048 83.78125 236.20703125 C85.56880068 238.83679331 87.69098747 241.13563969 89.828125 243.484375 C91 245 91 245 91 247 C91.99 247.33 92.98 247.66 94 248 C97 251.44444444 97 251.44444444 97 254 C97.99 254.33 98.98 254.66 100 255 C100 255.66 100 256.32 100 257 C100.99 257.33 101.98 257.66 103 258 C104.54296875 259.6015625 104.54296875 259.6015625 106.1875 261.625 C109.2721325 265.271663 112.56956294 268.37082647 116.19921875 271.46484375 C118.25230462 273.21508832 120.20626569 274.9820489 122 277 C122 277.66 122 278.32 122 279 C122.99 279.33 123.98 279.66 125 280 C125 280.66 125 281.32 125 282 C125.598125 282.103125 126.19625 282.20625 126.8125 282.3125 C129.31258286 283.09824033 130.37535082 283.96918853 132 286 C132 286.66 132 287.32 132 288 C132.55945313 288.25007813 133.11890625 288.50015625 133.6953125 288.7578125 C136.37147484 290.20021864 138.53107252 291.93998199 140.875 293.875 C143.66402213 296.14647163 146.4126127 298.364139 149.4375 300.3125 C152 302 152 302 153.3515625 303.3828125 C155.38855577 305.38118979 157.59627034 306.93244086 159.9375 308.5625 C160.79214844 309.16191406 161.64679688 309.76132812 162.52734375 310.37890625 C164.90289704 312.00533825 164.90289704 312.00533825 167.20703125 313.1015625 C169 314 169 314 170.75 315.8125 C174.51590519 319.47379671 178.94054652 322.17621861 183.8125 324.125 C186 325 186 325 187.3762207 326.41455078 C189.19137695 328.1868594 190.89987022 329.1152785 193.16796875 330.2421875 C203.06224879 335.3741288 209.88746797 339.4699081 214.87646484 349.78417969 C216.79723704 353.57229973 218.98392826 357.2065765 221.1262207 360.87255859 C223.08975845 364.23416691 225.03179898 367.60738583 226.96875 370.984375 C229.66814666 375.6874922 232.37677952 380.38513901 235.09375 385.078125 C235.76556717 386.23932557 236.43736105 387.40053961 237.10913086 388.56176758 C238.37210801 390.74439289 239.63588783 392.92655403 240.90063477 395.1081543 C244.70217798 401.68529352 248.39504145 408.31307779 252 415 C250 416 250 416 246.83984375 415.14453125 C245.53598794 414.70963225 244.23534299 414.26502699 242.9375 413.8125 C242.25864746 413.58054932 241.57979492 413.34859863 240.88037109 413.10961914 C235.78435032 411.34028559 230.8775163 409.3040458 226 407 C224.43877518 406.30960912 222.87625925 405.62213092 221.3125 404.9375 C216.6289113 402.88236598 212.09169311 400.55137256 207.52734375 398.24609375 C206.33073717 397.64321328 205.13412252 397.04034883 203.9375 396.4375 C203.33873047 396.13392578 202.73996094 395.83035156 202.12304688 395.51757812 C198.80117595 393.84754663 195.47593923 392.32072549 192 391 C192 390.34 192 389.68 192 389 C190.906875 388.731875 189.81375 388.46375 188.6875 388.1875 C185.0654097 387.02106414 184.43636973 386.55031932 182 384 C180.83407497 383.22951166 179.64044498 382.49969828 178.42578125 381.80859375 C177.75869141 381.42123047 177.09160156 381.03386719 176.40429688 380.63476562 C174.99925293 379.83057147 173.59298191 379.02851772 172.18554688 378.22851562 C170.42583268 377.20415333 168.70858917 376.10753566 167 375 C167 374.34 167 373.68 167 373 C166.26394531 372.72671875 165.52789062 372.4534375 164.76953125 372.171875 C157.79138718 369.21920473 150.6175331 364.08180106 145 359 C145 358.34 145 357.68 145 357 C143.35 356.34 141.7 355.68 140 355 C140 354.34 140 353.68 140 353 C139.43796875 352.7421875 138.8759375 352.484375 138.296875 352.21875 C135.73295421 350.85830223 133.54773635 349.27211038 131.25 347.5 C130.45078125 346.8915625 129.6515625 346.283125 128.828125 345.65625 C128.22484375 345.1096875 127.6215625 344.563125 127 344 C127 343.34 127 342.68 127 342 C126.01 341.67 125.02 341.34 124 341 C124 340.34 124 339.68 124 339 C123.13375 338.9071875 123.13375 338.9071875 122.25 338.8125 C119.11742429 337.6812921 117.96539149 335.62052199 116 333 C115.34 332.67 114.68 332.34 114 332 C114 331.34 114 330.68 114 330 C113.34 330 112.68 330 112 330 C110.63823078 328.35648543 109.31037934 326.68477344 108 325 C105.52470695 322.39776884 103.12487907 320.09365931 100.25 317.9375 C97.79889154 315.82682327 97.62562962 315.02387648 97 312 C96.01 311.67 95.02 311.34 94 311 C91 307.55555556 91 307.55555556 91 305 C90.34 305 89.68 305 89 305 C86 301.53846154 86 301.53846154 86 299 C85.01 298.67 84.02 298.34 83 298 C82.66666667 296.66666667 82.33333333 295.33333333 82 294 C81.01 293.67 80.02 293.34 79 293 C77.39453125 291.00390625 77.39453125 291.00390625 75.8125 288.5625 C75.28269531 287.75941406 74.75289063 286.95632813 74.20703125 286.12890625 C73 284 73 284 73 282 C72.34 282 71.68 282 71 282 C69.80457522 280.31874988 68.69287157 278.57751917 67.625 276.8125 C65.89720693 273.96963343 64.22414467 271.27255205 62.10986328 268.70166016 C59.90029718 265.87233147 58.15781394 263.00241509 56.390625 259.87890625 C55.89486969 259.00708961 55.89486969 259.00708961 55.38909912 258.11766052 C54.33862306 256.26823497 53.29417088 254.41549126 52.25 252.5625 C51.5655107 251.35458725 50.8806176 250.14690322 50.1953125 248.93945312 C49.16649931 247.12643733 48.13865408 245.31291378 47.11413574 243.49746704 C45.36188272 240.39302659 43.5969951 237.2970041 41.80664062 234.21435547 C41.44874451 233.59584213 41.09084839 232.9773288 40.72210693 232.34007263 C39.73511826 230.63650334 38.74415877 228.93523635 37.75292969 227.23413086 C35.93171309 223.87401161 34.46131976 220.52894294 33 217 C32.04793553 214.95540253 31.08960707 212.91371007 30.125 210.875 C27.55361763 205.33761718 25.30633115 199.73455118 23.1640625 194.01953125 C21.83849027 190.58105027 20.35938412 187.23868494 18.796875 183.90234375 C17.97688809 181.94482598 17.48081174 180.06512583 17 178 C15.60973016 173.15080579 14.131257 168.33607312 12.5 163.5625 C11.41723785 160.35640395 10.46560025 157.13862787 9.5859375 153.87109375 C8.8260407 151.05240134 8.06590858 148.23461586 7.27636719 145.42407227 C-3.0232461 108.69519543 -7.12225769 68.56728629 -4.125 30.5625 C-4.03549072 29.39468994 -3.94598145 28.22687988 -3.85375977 27.02368164 C-2.02756824 4.05513647 -2.02756824 4.05513647 0 0 Z " fill="#FF8400" transform="translate(287,440)"/>
<path d="M0 0 C-0.66 0.33 -1.32 0.66 -2 1 C-4.71076696 -0.3874726 -7.31324365 -1.83740135 -9.9375 -3.375 C-93.05590448 -50.61495651 -196.27802131 -60.88305615 -288 -36 C-288.85916016 -35.76700195 -289.71832031 -35.53400391 -290.60351562 -35.29394531 C-313.57095031 -28.94791601 -335.55536843 -20.34500845 -357 -10 C-357.75071777 -9.6405127 -358.50143555 -9.28102539 -359.27490234 -8.91064453 C-371.73161458 -2.92054752 -384.49453398 3.32968932 -396 11 C-398.83959994 11.18450195 -401.57965823 11.25218908 -404.41870117 11.22705078 C-405.27745346 11.22734283 -406.13620575 11.22763489 -407.02098083 11.22793579 C-409.86174597 11.22654155 -412.70224939 11.2109759 -415.54296875 11.1953125 C-417.51166134 11.19158271 -419.48035579 11.18873558 -421.4490509 11.18673706 C-426.63256956 11.17909796 -431.81597628 11.15944707 -436.99945068 11.1373291 C-442.28802984 11.11687665 -447.57662707 11.10773663 -452.86523438 11.09765625 C-463.24353879 11.07620147 -473.62176009 11.04206215 -484 11 C-483.07022484 9.89108418 -482.13690361 8.78514112 -481.20214844 7.68041992 C-480.42312164 6.75612434 -480.42312164 6.75612434 -479.62835693 5.81315613 C-477.08884412 2.98543873 -474.23464862 0.65276795 -471.25 -1.6875 C-470.28163208 -2.45223633 -470.28163208 -2.45223633 -469.29370117 -3.23242188 C-380.62365607 -72.16394615 -261.75135202 -93.91536122 0 0 Z " fill="#FF8400" transform="translate(886,217)"/>
<path d="M0 0 C0.33 0 0.66 0 1 0 C0.02349579 11.32744886 -2.64413265 22.16602938 -6 33 C-6.45076904 34.45925903 -6.45076904 34.45925903 -6.91064453 35.94799805 C-7.88897631 39.09349201 -8.88064787 42.23453651 -9.875 45.375 C-10.20113281 46.42171875 -10.52726563 47.4684375 -10.86328125 48.546875 C-13.82943116 57.89544086 -17.33860752 66.9678694 -21.84375 75.6875 C-23.10754812 78.21509624 -24.28995596 80.77631614 -25.46972656 83.34399414 C-28.71155978 90.39332025 -32.18465906 97.2392997 -36 104 C-36.95903111 105.72877976 -37.91741054 107.45792128 -38.875 109.1875 C-39.5828878 110.45858156 -40.29103897 111.72951673 -41 113 C-41.66 113 -42.32 113 -43 113 C-43.4021875 114.299375 -43.4021875 114.299375 -43.8125 115.625 C-44.97111987 118.91791964 -46.38209839 121.91127875 -48 125 C-48.66 125 -49.32 125 -50 125 C-50.226875 125.680625 -50.45375 126.36125 -50.6875 127.0625 C-52.08562547 130.19163795 -53.81090901 132.63923377 -55.87890625 135.3515625 C-57.19132292 137.12060315 -57.19132292 137.12060315 -58 140 C-59.33333333 141.33333333 -60.66666667 142.66666667 -62 144 C-62.33 144.66 -62.66 145.32 -63 146 C-64.25977806 148.51955611 -66.00683646 150.00683646 -68 152 C-69.32643714 153.84426545 -70.60067501 155.71312517 -71.8515625 157.609375 C-72.23054687 158.06828125 -72.60953125 158.5271875 -73 159 C-73.66 159 -74.32 159 -75 159 C-75.061875 159.556875 -75.12375 160.11375 -75.1875 160.6875 C-76.33901755 163.96489609 -78.5034586 165.6195768 -81 168 C-82.0828125 169.3921875 -82.0828125 169.3921875 -83.1875 170.8125 C-83.785625 171.534375 -84.38375 172.25625 -85 173 C-85.66 173 -86.32 173 -87 173 C-87 173.66 -87 174.32 -87 175 C-87.66 175 -88.32 175 -89 175 C-89.226875 175.53625 -89.45375 176.0725 -89.6875 176.625 C-92.02231629 180.84990566 -95.32375317 184.84893129 -99 188 C-99.66 188 -100.32 188 -101 188 C-101.33 188.99 -101.66 189.98 -102 191 C-102.66 191 -103.32 191 -104 191 C-104 191.66 -104 192.32 -104 193 C-105.64351457 194.36176922 -107.31522656 195.68962066 -109 197 C-109.86625 197.886875 -110.7325 198.77375 -111.625 199.6875 C-114 202 -114 202 -117 203 C-117 203.66 -117 204.32 -117 205 C-118.5390625 206.55078125 -118.5390625 206.55078125 -120.625 208.3125 C-121.35203125 208.92867187 -122.0790625 209.54484375 -122.828125 210.1796875 C-123.90320313 211.08074219 -123.90320313 211.08074219 -125 212 C-125.59296875 212.51820313 -126.1859375 213.03640625 -126.796875 213.5703125 C-130.75571429 217 -130.75571429 217 -133 217 C-133 217.66 -133 218.32 -133 219 C-135.475 219.99 -135.475 219.99 -138 221 C-138 221.66 -138 222.32 -138 223 C-140.1171875 224.7265625 -140.1171875 224.7265625 -142.875 226.625 C-143.77992188 227.25664063 -144.68484375 227.88828125 -145.6171875 228.5390625 C-148 230 -148 230 -150 230 C-150.33 230.99 -150.66 231.98 -151 233 C-152.31647119 233.69937532 -153.65022151 234.36729133 -155 235 C-155.495 235.99 -155.495 235.99 -156 237 C-156.66 237 -157.32 237 -158 237 C-157.41086447 233.02489967 -156.17954805 230.19302975 -154.1484375 226.73828125 C-153.55184326 225.71468506 -152.95524902 224.69108887 -152.34057617 223.63647461 C-151.69193604 222.53956299 -151.0432959 221.44265137 -150.375 220.3125 C-149.69888395 219.15741625 -149.02352196 218.00189082 -148.34887695 216.84594727 C-146.94295748 214.43825661 -145.53378836 212.03251122 -144.12255859 209.62792969 C-141.41855354 205.01415254 -138.75343102 200.37832542 -136.08837891 195.74194336 C-134.21461639 192.4846385 -132.33262804 189.23220306 -130.44921875 185.98046875 C-128.30082565 182.26788953 -126.17674233 178.54388505 -124.08203125 174.80078125 C-123.64028564 174.02226807 -123.19854004 173.24375488 -122.7434082 172.44165039 C-121.95375612 171.04979751 -121.1737582 169.65238799 -120.40698242 168.24780273 C-117.74659272 163.60082582 -114.46410365 160.01035134 -110 157 C-109.34 157 -108.68 157 -108 157 C-108 156.34 -108 155.68 -108 155 C-105.03812728 152.82796 -102.49314009 151.16438003 -99 150 C-97.79117904 147.99983534 -97.79117904 147.99983534 -97 146 C-96.34 146 -95.68 146 -95 146 C-95 145.34 -95 144.68 -95 144 C-93.4609375 142.51953125 -93.4609375 142.51953125 -91.375 140.8125 C-88.00035114 137.9556544 -85.18109068 134.98023619 -82.3828125 131.5703125 C-80.48543091 129.41565883 -78.26714104 127.74893737 -76 126 C-75.67 125.34 -75.34 124.68 -75 124 C-74.34 124 -73.68 124 -73 124 C-72.7525 123.443125 -72.505 122.88625 -72.25 122.3125 C-70.77075182 119.57589087 -69.06532561 117.32349131 -67 115 C-66.34 115 -65.68 115 -65 115 C-64.938125 114.443125 -64.87625 113.88625 -64.8125 113.3125 C-63.66639359 110.05050482 -61.45961261 108.40241231 -59 106 C-58.278125 104.906875 -57.55625 103.81375 -56.8125 102.6875 C-56.214375 101.800625 -55.61625 100.91375 -55 100 C-54.34 100 -53.68 100 -53 100 C-52.71125 99.236875 -52.4225 98.47375 -52.125 97.6875 C-51 95 -51 95 -49 92 C-48.34 92 -47.68 92 -47 92 C-46.731875 91.28457031 -46.46375 90.56914063 -46.1875 89.83203125 C-44.98268693 86.95871061 -43.58762888 84.36662374 -42 81.6875 C-41.2265625 80.36298828 -41.2265625 80.36298828 -40.4375 79.01171875 C-39.963125 78.34785156 -39.48875 77.68398438 -39 77 C-38.34 77 -37.68 77 -37 77 C-36.34 74.69 -35.68 72.38 -35 70 C-34.34 70 -33.68 70 -33 70 C-32.79375 69.236875 -32.5875 68.47375 -32.375 67.6875 C-30.43998197 62.49813348 -27.70276219 57.82242116 -25 53 C-24.67 52.34 -24.34 51.68 -24 51 C-23.34 51 -22.68 51 -22 51 C-21.89171875 50.27683594 -21.7834375 49.55367187 -21.671875 48.80859375 C-20.94878937 45.78592766 -19.840808 43.72341339 -18.25 41.0625 C-15.20084683 35.65718302 -13.15527351 30.16330211 -11.15625 24.30078125 C-9.9139966 20.75448354 -8.47689028 17.36538698 -6.90234375 13.95703125 C-6.03297973 12.07152746 -5.23043166 10.16864811 -4.4375 8.25 C-3.14300366 5.32331263 -1.7740403 2.66106045 0 0 Z " fill="#FF8400" transform="translate(917,606)"/>
<path d="M0 0 C3.8339058 1.2779686 4.10636815 2.47450668 6.00390625 5.96875 C6.85940063 7.52420532 6.85940063 7.52420532 7.73217773 9.11108398 C8.33618408 10.22942627 8.94019043 11.34776855 9.5625 12.5 C10.83454357 14.81456871 12.10798382 17.12837037 13.3828125 19.44140625 C14.00446289 20.57336426 14.62611328 21.70532227 15.26660156 22.87158203 C17.42503732 26.76710256 19.65844835 30.61165341 21.9375 34.4375 C27.04311752 43.02852627 32.02305295 51.69109137 36.99975586 60.35717773 C37.61858643 61.43298096 38.23741699 62.50878418 38.875 63.6171875 C39.70644531 65.06520752 39.70644531 65.06520752 40.5546875 66.54248047 C41.64530339 68.39689593 42.80664665 70.20996997 44 72 C44.39135742 73.91577148 44.39135742 73.91577148 44.60546875 76.12109375 C44.69828125 76.96067627 44.79109375 77.80025879 44.88671875 78.6652832 C44.98597656 79.58011475 45.08523438 80.49494629 45.1875 81.4375 C46.31883297 90.74192803 48.19956572 99.72893381 50.5 108.8125 C50.79672607 109.98546631 51.09345215 111.15843262 51.39916992 112.36694336 C53.52730323 120.5761307 56.05562961 128.55019994 59 136.5 C60.23440603 139.85721035 61.40816603 143.21895274 62.5 146.625 C65.22546614 154.84488989 69.188531 162.49044332 73.08984375 170.203125 C74.37464441 172.74506788 75.6357029 175.29684065 76.87890625 177.859375 C84.26133073 193.00416021 92.76354444 207.67896981 102.4296875 221.48828125 C102.84532959 222.0822168 103.26097168 222.67615234 103.68920898 223.28808594 C104.50653556 224.44989496 105.32879181 225.60825529 106.15649414 226.76269531 C109 230.78361451 109 230.78361451 109 233 C109.99 233.33 110.98 233.66 112 234 C113.03789581 235.64333504 114.03567924 237.31243867 115 239 C115.9793879 240.02019573 116.97895449 241.02149805 118 242 C121 245.66666667 121 245.66666667 121 248 C121.66 248 122.32 248 123 248 C125.29648649 250.5614657 126 251.47967572 126 255 C122.56247993 253.4722133 119.81046312 251.49818944 117 249 C117 248.34 117 247.68 117 247 C116.01 246.67 115.02 246.34 114 246 C114 245.34 114 244.68 114 244 C113.13375 243.62875 113.13375 243.62875 112.25 243.25 C109.67060021 241.81700012 107.93878408 240.21575324 106 238 C106 237.34 106 236.68 106 236 C105.01 235.67 104.02 235.34 103 235 C103 234.34 103 233.68 103 233 C102.34 233 101.68 233 101 233 C99.375 231.625 99.375 231.625 98 230 C98 229.34 98 228.68 98 228 C97.01 227.67 96.02 227.34 95 227 C93.43579853 225.28561252 91.94387998 223.5043823 90.5 221.6875 C89.7265625 220.72199219 88.953125 219.75648438 88.15625 218.76171875 C87.4446875 217.85035156 86.733125 216.93898438 86 216 C85.11828125 214.89591797 85.11828125 214.89591797 84.21875 213.76953125 C83 212 83 212 83 210 C82.01 209.67 81.02 209.34 80 209 C79.33333333 207.33333333 78.66666667 205.66666667 78 204 C77.01 203.67 76.02 203.34 75 203 C73.48790837 200.8749764 72.13526617 198.79900338 70.8125 196.5625 C70.44447266 195.96373047 70.07644531 195.36496094 69.69726562 194.74804688 C67 190.27929325 67 190.27929325 67 188 C66.34 188 65.68 188 65 188 C63.58203125 186.0703125 63.58203125 186.0703125 61.8125 183.125 C61.4815332 182.57489258 61.15056641 182.02478516 60.80957031 181.45800781 C59.52788117 179.31215795 58.26350055 177.15661323 57 175 C56.11997314 173.50388184 56.11997314 173.50388184 55.22216797 171.97753906 C53.56224801 169.14946554 51.9075747 166.31845737 50.25888062 163.48382568 C49.26813179 161.78116063 48.27435237 160.08026017 47.28051758 158.37939453 C44.16006372 152.98017493 41.21367425 147.62952762 38.81542969 141.8684082 C37.98807796 139.97268283 37.04121067 138.22374922 36 136.4375 C34.53194564 133.91428156 33.13932472 131.40866966 31.8125 128.8125 C31.48894531 128.17957031 31.16539062 127.54664063 30.83203125 126.89453125 C30 125 30 125 29.51953125 123.0703125 C28.89592825 120.58527799 27.91404411 118.40551007 26.875 116.0625 C21.76977207 103.96726523 17.48471183 91.28432175 14.60546875 78.47265625 C13.89850049 75.58548909 12.94201156 72.81897841 12 70 C5.66933945 47.44369688 1.37907984 23.39680275 0 0 Z " fill="#FF8400" transform="translate(300,442)"/>
<path d="M0 0 C0.66 0.66 1.32 1.32 2 2 C-8.86729408 2.18688856 -19.73419447 2.32827059 -30.60277939 2.41449738 C-35.65178687 2.45592145 -40.69968034 2.51193341 -45.74804688 2.60351562 C-50.63707361 2.69163335 -55.52504189 2.73851917 -60.41480255 2.75901794 C-62.26288736 2.77358991 -64.1109265 2.80203313 -65.9585495 2.84584045 C-79.46332765 3.15275932 -89.67596495 0.55804602 -101.93074417 -5.08939934 C-106.52261607 -7.11010724 -111.35037531 -8.39905595 -116.1875 -9.6875 C-117.22374512 -9.96948242 -118.25999023 -10.25146484 -119.32763672 -10.54199219 C-148.88824623 -18.39451653 -178.88537507 -22.21969455 -209.4375 -22.25 C-210.77887024 -22.25250763 -210.77887024 -22.25250763 -212.14733887 -22.25506592 C-232.00765007 -22.25727606 -251.43195075 -20.67464369 -271.03613281 -17.38037109 C-274.05770831 -16.99259394 -276.95717761 -16.93483714 -280 -17 C-233.13828633 -63.86171367 -52.1799943 -26.31645213 0 0 Z " fill="#FF8400" transform="translate(876,227)"/>
<path d="M0 0 C18 0 18 0 24 4 C27.13822581 9.43537093 26.52090402 15.92533994 26 22 C24.5625 25.5 24.5625 25.5 23 28 C21.1892535 33.02670774 22.94300711 37.29820604 24.4375 42.1875 C24.91739319 43.80538925 25.39535369 45.42385341 25.87109375 47.04296875 C26.08693115 47.75477295 26.30276855 48.46657715 26.52514648 49.19995117 C27 51 27 51 27 53 C24.03 53 21.06 53 18 53 C15.97114149 47.1066491 14.26044887 41.25906659 12.84375 35.1875 C12.5653125 34.465625 12.286875 33.74375 12 33 C11.01 32.67 10.02 32.34 9 32 C9 38.93 9 45.86 9 53 C6.03 53 3.06 53 0 53 C0 35.51 0 18.02 0 0 Z M9 8 C9 12.95 9 17.9 9 23 C10.98 23 12.96 23 15 23 C17.25075045 21.16888152 17.25075045 21.16888152 17.265625 18.46875 C17.26046875 17.4890625 17.2553125 16.509375 17.25 15.5 C17.25515625 14.5203125 17.2603125 13.540625 17.265625 12.53125 C17.25075045 9.83111848 17.25075045 9.83111848 15 8 C13.02 8 11.04 8 9 8 Z " fill="#FFFFFF" transform="translate(712,972)"/>
<path d="M0 0 C18 0 18 0 24 4 C27.13822581 9.43537093 26.52090402 15.92533994 26 22 C24.5625 25.5 24.5625 25.5 23 28 C21.1892535 33.02670774 22.94300711 37.29820604 24.4375 42.1875 C24.91739319 43.80538925 25.39535369 45.42385341 25.87109375 47.04296875 C26.08693115 47.75477295 26.30276855 48.46657715 26.52514648 49.19995117 C27 51 27 51 27 53 C24.03 53 21.06 53 18 53 C15.97114149 47.1066491 14.26044887 41.25906659 12.84375 35.1875 C12.5653125 34.465625 12.286875 33.74375 12 33 C11.01 32.67 10.02 32.34 9 32 C9 38.93 9 45.86 9 53 C6.03 53 3.06 53 0 53 C0 35.51 0 18.02 0 0 Z M9 8 C9 12.95 9 17.9 9 23 C10.98 23 12.96 23 15 23 C17.25075045 21.16888152 17.25075045 21.16888152 17.265625 18.46875 C17.26046875 17.4890625 17.2553125 16.509375 17.25 15.5 C17.25515625 14.5203125 17.2603125 13.540625 17.265625 12.53125 C17.25075045 9.83111848 17.25075045 9.83111848 15 8 C13.02 8 11.04 8 9 8 Z " fill="#FFFFFF" transform="translate(388,972)"/>
<path d="M0 0 C2.97 0 5.94 0 9 0 C10.65 11.22 12.3 22.44 14 34 C15.60498479 23.18535989 15.60498479 23.18535989 17.20092773 12.36938477 C17.40315404 11.01834264 17.60568805 9.66734651 17.80859375 8.31640625 C17.91143677 7.60899292 18.01427979 6.90157959 18.12023926 6.17272949 C18.8859282 1.1140718 18.8859282 1.1140718 20 0 C22.67058851 -0.14115161 25.32432238 -0.04247107 28 0 C27.44380833 9.60869053 25.99040621 19.01186637 24.41601562 28.49365234 C23.99629585 31.02231618 23.58354042 33.55204486 23.171875 36.08203125 C22.90664827 37.70058615 22.64103741 39.31907815 22.375 40.9375 C22.25205566 41.68854004 22.12911133 42.43958008 22.00244141 43.21337891 C21.45131245 46.52395352 20.8148159 49.74073641 20 53 C16.04 53 12.08 53 8 53 C6.85547065 46.25648481 5.71628664 39.51209659 4.58203125 32.7668457 C4.19547701 30.4726528 3.80746719 28.17870465 3.41796875 25.88500977 C2.85814028 22.58673465 2.30356446 19.28761271 1.75 15.98828125 C1.57500977 14.96414627 1.40001953 13.94001129 1.21972656 12.88484192 C1.05956055 11.92422348 0.89939453 10.96360504 0.734375 9.97387695 C0.59225586 9.13226517 0.45013672 8.29065338 0.30371094 7.42353821 C-0.00958577 4.92350792 -0.05276991 2.51686856 0 0 Z " fill="#FFFFFF" transform="translate(780,972)"/>
<path d="M0 0 C18 0 18 0 24 4 C27.14295857 9.44356802 26.50497883 15.91730046 26 22 C24.64789712 25.73437938 23.13242026 28.5201673 20 31 C17 32 17 32 9 32 C9 38.93 9 45.86 9 53 C6.03 53 3.06 53 0 53 C0 35.51 0 18.02 0 0 Z M9 8 C9 13.28 9 18.56 9 24 C12.465 23.505 12.465 23.505 16 23 C17.30089831 20.39820337 17.16840078 18.4030812 17.1875 15.5 C17.20167969 14.5203125 17.21585937 13.540625 17.23046875 12.53125 C17.25680034 9.830082 17.25680034 9.830082 15 8 C13.02 8 11.04 8 9 8 Z " fill="#FFFFFF" transform="translate(250,972)"/>
<path d="M0 0 C3.62197305 1.92186325 4.65136783 3.219728 6.3125 6.9375 C6.94563249 9.75781747 7.16911315 12.12507638 7 15 C2.545 15.495 2.545 15.495 -2 16 C-2.66 13.69 -3.32 11.38 -4 9 C-5.32 9 -6.64 9 -8 9 C-8.80469849 10.70112992 -8.80469849 10.70112992 -9 13 C-7.15388055 17.36138253 -4.92803846 20.3905957 -1.625 23.75 C3.11293526 28.91373009 7.50567499 34.21895032 8.25 41.41796875 C7.94724759 47.06619346 5.99600553 50.10145802 2 54 C-1.96283561 55.98141781 -6.69210238 55.55820645 -11 55 C-14.17852316 53.35551311 -16.37801764 51.24396473 -18 48 C-18.13415472 45.3276379 -18.04318541 42.67749512 -18 40 C-15.29120665 38.64560332 -12.99066732 38.93498549 -10 39 C-9.34 41.31 -8.68 43.62 -8 46 C-6.33388095 46.042721 -4.66617115 46.04063832 -3 46 C-1.73745077 44.9236509 -1.73745077 44.9236509 -1.5 42.4375 C-2.14554383 37.99938616 -3.97398325 36.34238972 -6.984375 33.1484375 C-9.0481657 30.94866059 -10.9419377 28.67821114 -12.8125 26.3125 C-13.37582031 25.60738281 -13.93914063 24.90226563 -14.51953125 24.17578125 C-18.01167992 19.04352054 -18.88928548 14.08571266 -18 8 C-13.68000339 -0.19309701 -8.67959338 -1.01664344 0 0 Z " fill="#FFFFFF" transform="translate(594,971)"/>
<path d="M0 0 C3.67798515 2.1017058 5.4469194 4.11387763 7 8 C7.1953125 10.796875 7.1953125 10.796875 7.125 13.75 C7.10695313 14.73484375 7.08890625 15.7196875 7.0703125 16.734375 C7.04710937 17.48203125 7.02390625 18.2296875 7 19 C4.36 19 1.72 19 -1 19 C-1.66 15.7 -2.32 12.4 -3 9 C-4.65 9 -6.3 9 -8 9 C-9.49641368 11.99282736 -9.14222979 15.06278606 -9.1328125 18.34375 C-9.13376923 19.06864624 -9.13472595 19.79354248 -9.13571167 20.54040527 C-9.13639243 22.07364997 -9.13454536 23.60689755 -9.13037109 25.14013672 C-9.12502134 27.49062558 -9.13031953 29.84092335 -9.13671875 32.19140625 C-9.13605795 33.67968792 -9.13477675 35.16796948 -9.1328125 36.65625 C-9.13483673 37.36148804 -9.13686096 38.06672607 -9.13894653 38.79333496 C-9.17494742 42.52129371 -9.17494742 42.52129371 -8 46 C-6.35 46 -4.7 46 -3 46 C-2.34 42.04 -1.68 38.08 -1 34 C1.64 34 4.28 34 7 34 C7.08150744 36.06183633 7.1394194 38.12461349 7.1875 40.1875 C7.23970703 41.91033203 7.23970703 41.91033203 7.29296875 43.66796875 C6.89208335 48.22737199 5.41007249 50.64347457 2.1484375 53.78125 C-1.95418626 56.10855657 -6.44808358 55.72357053 -11 55 C-14.17282395 53.33980142 -16.37590133 51.24819734 -18 48 C-18.28602206 42.22307841 -18.31383544 36.44495391 -18.35009766 30.66162109 C-18.36663902 28.72757926 -18.39390506 26.7935981 -18.43212891 24.85986328 C-18.48702673 22.06771207 -18.50879232 19.27699396 -18.5234375 16.484375 C-18.54610687 15.62479187 -18.56877625 14.76520874 -18.59213257 13.87957764 C-18.57718956 9.6120014 -18.32958903 6.85412551 -15.59228516 3.46972656 C-10.91559389 -0.98585913 -6.23763983 -0.65801692 0 0 Z " fill="#FFFFFF" transform="translate(924,971)"/>
<path d="M0 0 C7.92 0 15.84 0 24 0 C24 2.64 24 5.28 24 8 C19.05 8 14.1 8 9 8 C9 12.62 9 17.24 9 22 C12.96 22 16.92 22 21 22 C21 24.97 21 27.94 21 31 C17.04 31 13.08 31 9 31 C9 35.62 9 40.24 9 45 C13.95 45 18.9 45 24 45 C24 47.64 24 50.28 24 53 C16.08 53 8.16 53 0 53 C0 35.51 0 18.02 0 0 Z " fill="#FFFFFF" transform="translate(975,972)"/>
<path d="M0 0 C7.92 0 15.84 0 24 0 C24 2.64 24 5.28 24 8 C19.05 8 14.1 8 9 8 C9 12.62 9 17.24 9 22 C12.96 22 16.92 22 21 22 C21 24.97 21 27.94 21 31 C17.04 31 13.08 31 9 31 C9 35.62 9 40.24 9 45 C13.95 45 18.9 45 24 45 C24 47.64 24 50.28 24 53 C16.08 53 8.16 53 0 53 C0 35.51 0 18.02 0 0 Z " fill="#FFFFFF" transform="translate(645,972)"/>
<path d="M0 0 C7.92 0 15.84 0 24 0 C24 2.64 24 5.28 24 8 C19.05 8 14.1 8 9 8 C9 12.62 9 17.24 9 22 C12.96 22 16.92 22 21 22 C21 24.97 21 27.94 21 31 C17.04 31 13.08 31 9 31 C9 35.62 9 40.24 9 45 C13.95 45 18.9 45 24 45 C24 47.64 24 50.28 24 53 C16.08 53 8.16 53 0 53 C0 35.51 0 18.02 0 0 Z " fill="#FFFFFF" transform="translate(458,972)"/>
<path d="M0 0 C2.97 0 5.94 0 9 0 C11.14710968 5.62338249 13.13236819 11.27789404 15 17 C15.34933594 15.85660156 15.69867188 14.71320312 16.05859375 13.53515625 C16.51806463 12.04422012 16.97770901 10.55333745 17.4375 9.0625 C17.66759766 8.30775391 17.89769531 7.55300781 18.13476562 6.77539062 C19.88671875 1.11328125 19.88671875 1.11328125 21 0 C22.51928038 -0.07179964 24.04167482 -0.08392007 25.5625 -0.0625 C26.38878906 -0.05347656 27.21507812 -0.04445313 28.06640625 -0.03515625 C28.70449219 -0.02355469 29.34257812 -0.01195312 30 0 C29.70230713 0.78834229 29.40461426 1.57668457 29.09790039 2.38891602 C22.74520855 19.48697335 18.38262227 34.51498436 19 53 C16.03 53 13.06 53 10 53 C10.01683838 52.37883301 10.03367676 51.75766602 10.05102539 51.11767578 C10.34949968 34.01244232 7.1947964 20.05685739 0.81030273 4.21704102 C0 2 0 2 0 0 Z " fill="#FFFFFF" transform="translate(315,972)"/>
<path d="M0 0 C2.64 0 5.28 0 8 0 C8 17.49 8 34.98 8 53 C5.36 53 2.72 53 0 53 C0 35.51 0 18.02 0 0 Z " fill="#FFFFFF" transform="translate(851,972)"/>
</svg>
